# xmcd CD database file
# Copyright 1993-1996 (C) Ti Kan
#
# Track frame offsets:
#    150
#    17100
#    29685
#    47477
#    64127
#    77822
#    94195
#    109950
#    127202
#    142535
#    159062
#    176955
#    194635
#    213085
#    229115
#    246450
#    261960
#    281942
#    295590
#
# Disc length: 4133 seconds
#
# Revision: 0
# Processed by: cddbd v1.4b41PL1 Copyright (c) Steve Scherf et al.
# Submitted via: MyCDplayer 2.1.4  (wjohn@fix.net)
#
DISCID=1d102313
DTITLE=Diana Ross - Anthology (Volume II)
DYEAR=1900
DGENRE=
TTITLE0=Love Hangover
TTITLE1=Gettin' Ready For Love
TTITLE2=Your Love Is So Good For Me
TTITLE3=You Got It
TTITLE4=Top Of The World
TTITLE5=Lovin' Livin' Givin'
TTITLE6=What You Gave Me
TTITLE7=The Boss
TTITLE8=It's My House
TTITLE9=Upside Down
TTITLE10=I'm Coming OUt
TTITLE11=It's My Turn
TTITLE12=One More Chance
TTITLE13=Crying My Heart Out For You
TTITLE14=My Old Piano
TTITLE15=My Man (Mon Homme)
TTITLE16=Endless Love
TTITLE17=Imagine
TTITLE18=Too Shy To Say
EXTD=
EXTT0=
EXTT1=
EXTT2=
EXTT3=
EXTT4=
EXTT5=
EXTT6=
EXTT7=
EXTT8=
EXTT9=
EXTT10=
EXTT11=
EXTT12=
EXTT13=
EXTT14=
EXTT15=
EXTT16=
EXTT17=
EXTT18=
PLAYORDER=
